Coordinates
version=1
nRows=19
nColumns=36
inDegrees=yes

Units are S.I. units (second, meters, Newtons, ...)
If the header above contains a line with 'inDegrees', this indicates whether rotational values are in degrees (yes) or radians (no).

endheader
time	pelvis_tilt	pelvis_list	pelvis_rotation	pelvis_tx	pelvis_ty	pelvis_tz	hip_flexion_r	hip_adduction_r	hip_rotation_r	knee_angle_r	knee_angle_r_beta	ankle_angle_r	subtalar_angle_r	mtp_angle_r	hip_flexion_l	hip_adduction_l	hip_rotation_l	knee_angle_l	knee_angle_l_beta	ankle_angle_l	subtalar_angle_l	mtp_angle_l	lumbar_extension	lumbar_bending	lumbar_rotation	arm_flex_r	arm_add_r	arm_rot_r	elbow_flex_r	pro_sup_r	arm_flex_l	arm_add_l	arm_rot_l	elbow_flex_l	pro_sup_l
      4.50000000	    -24.36939681	     -5.55777188	     15.14459562	     -0.05133752	      0.62315673	     -0.23085797	    105.69632826	    -14.50334064	      4.14755766	    102.22011447	      1.78407756	     30.56406462	     -5.36150317	     -7.49999987	    102.46736792	    -13.89154576	      4.35147238	    101.75232342	      1.77591307	     23.23582044	    -17.13062284	     -7.49999987	    -33.11698994	     -4.77204249	      7.63538360	     85.58020514	      5.12445934	     17.81235250	     48.95219243	     99.24022818	    104.56609639	     21.25891401	     50.80602586	     39.57405596	     89.49978447
      4.51666670	    -24.35944918	     -5.69380276	     15.16470505	     -0.05230029	      0.62878428	     -0.23152667	    104.59462713	    -14.64718269	      3.65858418	    100.80428405	      1.75936666	     29.59837694	     -5.36533145	     -7.49999987	    101.65651325	    -13.70861944	      4.28475444	    100.56232789	      1.75514373	     23.08659562	    -17.48869455	     -7.49999987	    -32.36422590	     -4.58998275	      7.89194361	     83.90214066	      4.01309754	     17.51065851	     50.10095320	     98.75398045	    101.51786229	     20.31354777	     48.49260813	     43.67984463	     95.66338897
      4.53333330	    -23.88238642	     -5.57497622	     15.32927138	     -0.05332771	      0.63682184	     -0.23194703	    102.83670933	    -14.80176932	      3.29886675	     99.28324922	      1.73281959	     28.85341742	     -5.39245012	     -7.49999987	    100.04316474	    -13.46151613	      3.99665410	     99.11308427	      1.72984965	     22.99707238	    -18.02046959	     -7.49999987	    -31.82072410	     -4.58348972	      7.85347948	     81.31337138	      2.48756923	     17.64228437	     52.13257195	     96.25983524	     97.94258581	     18.82828818	     49.28314049	     46.49599553	     93.23130712
      4.55000000	    -24.03963069	     -5.68693032	     15.30328619	     -0.04884414	      0.65745861	     -0.23846612	    101.20435332	    -14.85168664	      2.73030227	     97.20372111	      1.69652498	     28.26238185	     -5.11056955	     -7.49999987	     98.70116454	    -13.21973268	      3.72104452	     97.22055513	      1.69681879	     22.63783942	    -18.39790060	     -7.49999987	    -30.64191613	     -4.47486272	      8.31178179	     78.09521822	      0.50779112	     17.87826123	     52.85134941	     94.80747490	     93.59111467	     17.16062008	     50.50296327	     48.92254966	     92.31094002
      4.56666670	    -23.69868840	     -5.55257214	     15.22494377	     -0.03100760	      0.67371099	     -0.25147737	     98.46418155	    -14.88523046	      2.24496265	     94.71243814	      1.65304389	     27.88788414	     -5.02995617	     -7.49999987	     96.07696771	    -12.79216635	      3.45636937	     94.92716089	      1.65679151	     22.77367460	    -18.89666773	     -7.49999987	    -29.05843984	     -4.11141106	      7.00685891	     72.37665786	      0.47326641	     15.89296574	     52.93420292	     99.08336079	     85.38018466	     13.94692748	     45.44721570	     54.73347189	    102.22085923
      4.58333330	    -22.97874083	     -5.20103874	     15.18895312	     -0.03351676	      0.68720801	     -0.25014539	     95.30595521	    -14.86917993	      1.99928298	     92.25833749	      1.61021175	     27.55861873	     -4.71212748	     -7.49999987	     92.90124351	    -12.39648462	      3.09681326	     92.53079994	      1.61496712	     23.12358178	    -18.92985602	     -7.49999987	    -28.09119937	     -4.40493458	      6.93473946	     68.29024709	     -1.24536550	     15.80439756	     51.95843124	     99.08614283	     80.66061139	     12.17002424	     46.02854583	     54.46371370	    102.24456705
      4.60000000	    -22.18087808	     -4.82192935	     15.09944267	     -0.02595603	      0.70407334	     -0.24154263	     91.77654473	    -14.62961062	      1.70952547	     89.60868999	      1.56396668	     27.79672809	     -4.17796570	     -7.49999987	     89.30694614	    -12.01126096	      2.80126342	     89.82742681	      1.56778436	     23.59364552	    -19.07450615	     -7.49999987	    -26.79523374	     -4.11606295	      6.83996876	     63.88464377	     -0.88757939	     13.66008998	     50.75354868	     96.95539492	     71.81736771	      7.40484186	     39.45546200	     60.85130592	     99.89056970
      4.61666670	    -21.24229471	     -4.36151692	     14.93512029	     -0.01138228	      0.72536629	     -0.24616206	     87.50834268	    -14.20634196	      1.41589552	     86.39035777	      1.50779619	     28.06569608	     -3.91748534	     -7.49999987	     84.90194405	    -11.81295979	      2.36170234	     86.54139010	      1.51043220	     24.23494563	    -18.59291790	     -7.49999987	    -25.76013408	     -4.40614960	      6.47093468	     57.19804733	     -2.65254130	     14.56342128	     51.15200923	     96.73296707	     63.38358682	      4.38999687	     37.01443575	     61.98768138	     99.73528140
      4.63333330	    -19.97045455	     -3.76800364	     14.71752799	     -0.01951780	      0.76083609	     -0.24861913	     82.33426435	    -13.76131622	      1.02014746	     82.16817592	      1.43410521	     27.78181796	     -3.91854731	     -7.49999987	     79.65751471	    -11.63598609	      1.64792624	     82.35746770	      1.43740898	     24.31834490	    -18.10177433	     -7.49999987	    -26.52158843	     -4.57885598	      6.47043569	     55.16712046	     -5.33415011	     16.55450492	     46.87823804	     99.46776756	     58.41743213	      1.95875965	     34.65431880	     59.83606605	    101.80353581
      4.65000000	    -18.74701780	     -3.03844674	     14.42300230	     -0.01143873	      0.76980306	     -0.23941190	     77.48436033	    -13.15940298	      0.95514333	     78.13187548	      1.36365848	     27.69369353	     -3.58684834	     -7.49999987	     74.31701683	    -11.61523417	      0.74271996	     78.02204499	      1.36174157	     24.14438081	    -17.48710278	     -7.49999987	    -26.05188758	     -5.47132880	      6.60226831	     51.02775878	     -6.75452648	     16.79031960	     44.24136386	     94.22716735	     53.64684564	     -0.33670890	     33.83540894	     56.75617163	     95.93625065
      4.66666670	    -17.00811743	     -1.94881039	     14.20396492	     -0.01593195	      0.78594309	     -0.25215511	     72.37627359	    -12.93333669	      1.12222680	     74.24700612	      1.29585472	     27.19001463	     -3.63281911	     -7.49999987	     68.51509346	    -11.31202511	     -0.49941647	     73.73302877	      1.28688412	     23.81957004	    -16.77863308	     -7.49999987	    -25.72161634	     -6.08552766	      6.22200956	     46.56052864	     -8.85751657	     17.71079723	     41.27142007	     93.39630328	     48.85454081	     -1.74077423	     31.14995067	     53.20555659	     94.50041302
      4.68333330	    -15.58534443	     -1.17105007	     13.92946633	     -0.01784498	      0.81317509	     -0.25249050	     67.49906289	    -12.76961072	      0.96064025	     69.84806384	      1.21907869	     26.30304019	     -3.55984044	     -7.49999987	     63.19368692	    -10.87284605	     -1.45925168	     69.13246882	      1.20658920	     22.76306610	    -16.35728645	     -7.49999987	    -25.43315659	     -6.04868562	      5.39137432	     44.49259097	     -9.80940632	     21.37434416	     36.16516842	     95.64366921	     42.98005076	     -3.63345873	     24.96996748	     50.40759374	     94.76821281
      4.70000000	    -13.41962338	      0.18562683	     13.48353411	     -0.00886606	      0.84449335	     -0.24202283	     61.21021853	    -12.70288933	      0.91312354	     64.44971152	      1.12485967	     25.22082288	     -3.47675613	     -7.49999987	     56.08222643	    -10.14571721	     -2.72956030	     63.04061659	      1.10026632	     20.80229152	    -16.43812449	     -7.49999987	    -26.22115335	     -7.09938186	      5.14477558	     40.07246308	    -10.69994310	     20.42842109	     32.77993010	     93.52946613	     37.81653850	     -5.53598356	     21.32551534	     44.07811095	     92.14013589
      4.71666670	    -10.14385832	      1.44006323	     12.82435423	      0.00481516	      0.88004323	     -0.23835230	     52.89504619	    -12.47252213	      0.24688706	     57.66158537	      1.00638452	     23.26387128	     -3.58908633	     -7.49999987	     47.10434329	     -9.62181120	     -3.86173893	     55.31610299	      0.96544813	     18.15261386	    -16.26229811	     -7.49999987	    -27.86755779	     -7.80408043	      5.18139412	     36.10116244	    -10.70468673	     16.98809768	     29.37137833	     92.06139744	     33.37047727	     -6.73486709	     14.71619760	     37.77801138	     89.01615702
      4.73333330	     -6.15943280	      2.89817946	     11.90165997	      0.00937130	      0.91562170	     -0.23384923	     43.44056982	    -12.22194305	     -0.29995725	     50.22246981	      0.87654746	     20.58487952	     -3.56493060	     -7.49999987	     36.69117639	     -9.03706548	     -5.51726962	     46.36463312	      0.80921550	     14.16316984	    -16.20558421	     -7.49999987	    -29.79471516	     -8.91739513	      5.31587179	     32.12430237	    -10.72763583	     12.10813934	     26.04483876	     91.65356231	     29.16905270	     -7.64660625	      7.84839704	     29.56521638	     85.86433971
      4.75000000	     -2.30984985	      4.06826457	     10.80488074	      0.00557825	      0.95071802	     -0.23474597	     34.19749879	    -12.02672756	     -1.22871951	     42.21779835	      0.73683958	     16.97595791	     -3.10851965	     -7.49999987	     26.20000959	     -8.43140192	     -7.70075430	     36.48685840	      0.63681581	      9.28634891	    -15.22583555	     -7.49999987	    -31.40734218	     -9.69996921	      5.76649940	     28.44787480	    -11.24370739	      6.66855037	     23.81885572	     91.85922566	     25.06933923	     -8.74789446	     -0.97122963	     23.70885101	     83.54554453
      4.76666670	      0.98687112	      4.31642797	     10.03789960	      0.00808185	      0.97968549	     -0.23420878	     25.13915535	    -11.28771006	     -3.15373093	     33.06198987	      0.57704058	     12.97432540	     -1.74957752	     -7.49999987	     16.69335695	     -8.08074130	     -9.59636691	     26.17701230	      0.45687505	      3.89301609	    -13.81547737	     -7.49999987	    -31.69401749	     -9.40948585	      6.47855374	     24.16249832	    -12.18527807	      0.79466957	     21.97981371	     91.87918637	     20.01536879	     -9.48418508	    -11.88481041	     18.35838927	     82.22451659
      4.78333330	      3.31489706	      3.73272322	      9.84536990	      0.02336602	      0.98994398	     -0.24266216	     17.57794316	    -10.01188741	     -5.13746095	     24.73929054	      0.43178207	      9.33957563	      0.31014255	     -7.49999987	      9.15130081	     -8.23543982	    -11.18598201	     17.08585954	      0.29820450	     -0.05774928	    -11.53878485	     -7.49999987	    -29.34419460	     -7.89493640	      7.24639185	     19.26758363	    -13.24051429	     -6.58471815	     19.86227730	     94.09391495	     14.02940199	     -9.96752142	    -27.45304140	     15.58438744	     92.44233307
      4.80000000	      4.56296703	      3.25631693	      9.91816238	      0.02666328	      1.00040967	     -0.25178900	     12.58540306	     -9.12470610	     -6.08055604	     18.64320167	      0.32538525	      6.46748123	      2.15365315	     -7.49999987	      4.09948720	     -8.14223050	    -12.52894514	     10.35679957	      0.18076025	     -2.27918068	     -8.76538340	     -7.49999987	    -26.35001545	     -6.25716758	      7.09531692	     13.79143274	    -13.91657874	    -16.70083743	     19.51671251	     93.38347347	      8.07293528	    -11.35893234	    -37.73719331	     13.52641438	     96.39070530
